<svg xmlns="http://www.w3.org/2000/svg" x="0px" y="0px"
    width="64" height="64"
    viewBox="0 0 172 172"
    style=" fill:#000000;"><defs><linearGradient x1="86" y1="19.98963" x2="86" y2="49.23231" gradientUnits="userSpaceOnUse" id="color-1_4rzOerPFTcOo_gr1"><stop offset="0" stop-color="#ffe9e7"></stop><stop offset="1" stop-color="#dd6e96"></stop></linearGradient><linearGradient x1="86" y1="15.15213" x2="86" y2="148.49513" gradientUnits="userSpaceOnUse" id="color-2_4rzOerPFTcOo_gr2"><stop offset="0" stop-color="#ff8177"></stop><stop offset="1" stop-color="#b12a5b"></stop></linearGradient><linearGradient x1="69.875" y1="15.15213" x2="69.875" y2="148.49513" gradientUnits="userSpaceOnUse" id="color-3_4rzOerPFTcOo_gr3"><stop offset="0" stop-color="#ff8177"></stop><stop offset="1" stop-color="#b12a5b"></stop></linearGradient><linearGradient x1="111.53125" y1="15.15213" x2="111.53125" y2="148.49513" gradientUnits="userSpaceOnUse" id="color-4_4rzOerPFTcOo_gr4"><stop offset="0" stop-color="#ff8177"></stop><stop offset="1" stop-color="#b12a5b"></stop></linearGradient><linearGradient x1="106.15625" y1="15.15213" x2="106.15625" y2="148.49513" gradientUnits="userSpaceOnUse" id="color-5_4rzOerPFTcOo_gr5"><stop offset="0" stop-color="#ff8177"></stop><stop offset="1" stop-color="#b12a5b"></stop></linearGradient><linearGradient x1="111.53125" y1="15.15213" x2="111.53125" y2="148.49513" gradientUnits="userSpaceOnUse" id="color-6_4rzOerPFTcOo_gr6"><stop offset="0" stop-color="#ff8177"></stop><stop offset="1" stop-color="#b12a5b"></stop></linearGradient><linearGradient x1="106.15625" y1="15.15213" x2="106.15625" y2="148.49513" gradientUnits="userSpaceOnUse" id="color-7_4rzOerPFTcOo_gr7"><stop offset="0" stop-color="#ff8177"></stop><stop offset="1" stop-color="#b12a5b"></stop></linearGradient><linearGradient x1="69.875" y1="15.15213" x2="69.875" y2="148.49513" gradientUnits="userSpaceOnUse" id="color-8_4rzOerPFTcOo_gr8"><stop offset="0" stop-color="#ff8177"></stop><stop offset="1" stop-color="#b12a5b"></stop></linearGradient><linearGradient x1="61.8125" y1="15.15213" x2="61.8125" y2="148.49513" gradientUnits="userSpaceOnUse" id="color-9_4rzOerPFTcOo_gr9"><stop offset="0" stop-color="#ff8177"></stop><stop offset="1" stop-color="#b12a5b"></stop></linearGradient><linearGradient x1="115.5625" y1="15.15213" x2="115.5625" y2="148.49513" gradientUnits="userSpaceOnUse" id="color-10_4rzOerPFTcOo_gr10"><stop offset="0" stop-color="#ff8177"></stop><stop offset="1" stop-color="#b12a5b"></stop></linearGradient><linearGradient x1="51.0625" y1="15.15213" x2="51.0625" y2="148.49513" gradientUnits="userSpaceOnUse" id="color-11_4rzOerPFTcOo_gr11"><stop offset="0" stop-color="#ff8177"></stop><stop offset="1" stop-color="#b12a5b"></stop></linearGradient><linearGradient x1="61.8125" y1="15.15213" x2="61.8125" y2="148.49513" gradientUnits="userSpaceOnUse" id="color-12_4rzOerPFTcOo_gr12"><stop offset="0" stop-color="#ff8177"></stop><stop offset="1" stop-color="#b12a5b"></stop></linearGradient><linearGradient x1="72.5625" y1="15.15213" x2="72.5625" y2="148.49513" gradientUnits="userSpaceOnUse" id="color-13_4rzOerPFTcOo_gr13"><stop offset="0" stop-color="#ff8177"></stop><stop offset="1" stop-color="#b12a5b"></stop></linearGradient><linearGradient x1="83.3125" y1="15.15213" x2="83.3125" y2="148.49513" gradientUnits="userSpaceOnUse" id="color-14_4rzOerPFTcOo_gr14"><stop offset="0" stop-color="#ff8177"></stop><stop offset="1" stop-color="#b12a5b"></stop></linearGradient></defs><g fill="none" fill-rule="nonzero" stroke="none" stroke-width="1" stroke-linecap="butt" stroke-linejoin="miter" stroke-miterlimit="10" stroke-dasharray="" stroke-dashoffset="0" font-family="none" font-weight="none" font-size="none" text-anchor="none" style="mix-blend-mode: normal"><path d="M0,172v-172h172v172z" fill="none"></path><g><rect x="29" y="8" transform="scale(2.6875,2.6875)" width="6" height="9" fill="url(#color-1_4rzOerPFTcOo_gr1)"></rect><path d="M131.6875,26.875h-5.375c0,-2.96431 -2.41069,-5.375 -5.375,-5.375h-21.5c0,-2.96431 -2.41069,-5.375 -5.375,-5.375h-16.125c-2.96431,0 -5.375,2.41069 -5.375,5.375h-21.5c-2.96431,0 -5.375,2.41069 -5.375,5.375h-5.375c-2.96431,0 -5.375,2.41069 -5.375,5.375v118.25c0,2.96431 2.41069,5.375 5.375,5.375h91.375c2.96431,0 5.375,-2.41069 5.375,-5.375v-118.25c0,-2.96431 -2.41069,-5.375 -5.375,-5.375zM77.9375,21.5h16.125v13.4375c0,4.44512 -3.61738,8.0625 -8.0625,8.0625c-4.44512,0 -8.0625,-3.61738 -8.0625,-8.0625zM40.3125,150.5v-118.25h32.25v2.6875c0,7.40944 6.02806,13.4375 13.4375,13.4375c7.40944,0 13.4375,-6.02806 13.4375,-13.4375v-2.6875h32.25v75.25v10.75h-26.875c-2.96431,0 -5.375,2.41069 -5.375,5.375v26.875h-8.0625zM131.6875,150.5h-26.875v-26.875h26.875z" fill="url(#color-2_4rzOerPFTcOo_gr2)"></path><path d="M82.57344,76.76306c0.44075,-1.33031 0.73906,-2.72513 0.73906,-4.20056v-5.375c0,-7.40944 -6.02806,-13.4375 -13.4375,-13.4375c-7.40944,0 -13.4375,6.02806 -13.4375,13.4375v5.375c0,1.47544 0.29831,2.87025 0.73906,4.20056c-5.52012,4.04469 -8.80156,10.37644 -8.80156,17.29944v5.375h43v-5.375c0,-6.89613 -3.28413,-13.24937 -8.80156,-17.29944zM61.8125,67.1875c0,-4.44512 3.61737,-8.0625 8.0625,-8.0625c4.44513,0 8.0625,3.61738 8.0625,8.0625v5.375c0,4.44513 -3.61737,8.0625 -8.0625,8.0625c-4.44513,0 -8.0625,-3.61737 -8.0625,-8.0625zM53.75,94.0625c0,-4.988 2.26019,-9.58094 6.11138,-12.62856c2.46444,2.77887 6.01731,4.56606 10.01362,4.56606c3.99094,0 7.54381,-1.7845 10.00825,-4.558c3.8485,3.05031 6.11675,7.65131 6.11675,12.6205z" fill="url(#color-3_4rzOerPFTcOo_gr3)"></path><rect x="37" y="22" transform="scale(2.6875,2.6875)" width="9" height="2" fill="url(#color-4_4rzOerPFTcOo_gr4)"></rect><rect x="37" y="26" transform="scale(2.6875,2.6875)" width="5" height="2" fill="url(#color-5_4rzOerPFTcOo_gr5)"></rect><rect x="37" y="30" transform="scale(2.6875,2.6875)" width="9" height="2" fill="url(#color-6_4rzOerPFTcOo_gr6)"></rect><rect x="37" y="34" transform="scale(2.6875,2.6875)" width="5" height="2" fill="url(#color-7_4rzOerPFTcOo_gr7)"></rect><rect x="18" y="39" transform="scale(2.6875,2.6875)" width="16" height="2" fill="url(#color-8_4rzOerPFTcOo_gr8)"></rect><rect x="18" y="43" transform="scale(2.6875,2.6875)" width="10" height="2" fill="url(#color-9_4rzOerPFTcOo_gr9)"></rect><path d="M115.5625,134.375h5.375v-5.375h-5.375c-2.96431,0 -5.375,2.41069 -5.375,5.375v5.375h5.375z" fill="url(#color-10_4rzOerPFTcOo_gr10)"></path><rect x="18" y="49" transform="scale(2.6875,2.6875)" width="2" height="4" fill="url(#color-11_4rzOerPFTcOo_gr11)"></rect><rect x="22" y="49" transform="scale(2.6875,2.6875)" width="2" height="4" fill="url(#color-12_4rzOerPFTcOo_gr12)"></rect><rect x="26" y="49" transform="scale(2.6875,2.6875)" width="2" height="4" fill="url(#color-13_4rzOerPFTcOo_gr13)"></rect><rect x="30" y="49" transform="scale(2.6875,2.6875)" width="2" height="4" fill="url(#color-14_4rzOerPFTcOo_gr14)"></rect></g></g></svg>