<svg xmlns="http://www.w3.org/2000/svg" x="0px" y="0px"
width="96" height="96"
viewBox="0 0 172 172"
style=" fill:#000000;"><defs><linearGradient x1="86" y1="14.33244" x2="86" y2="160.89256" gradientUnits="userSpaceOnUse" id="color-1_44024_gr1"><stop offset="0" stop-color="#e6e6e6"></stop><stop offset="1" stop-color="#808080"></stop></linearGradient><linearGradient x1="86" y1="14.33244" x2="86" y2="160.89256" gradientUnits="userSpaceOnUse" id="color-2_44024_gr2"><stop offset="0" stop-color="#e6e6e6"></stop><stop offset="1" stop-color="#808080"></stop></linearGradient><linearGradient x1="86" y1="57.78125" x2="86" y2="70.778" gradientUnits="userSpaceOnUse" id="color-3_44024_gr3"><stop offset="0" stop-color="#ffffff"></stop><stop offset="1" stop-color="#b8b8b8"></stop></linearGradient><linearGradient x1="86" y1="78.83244" x2="86" y2="92.71875" gradientUnits="userSpaceOnUse" id="color-4_44024_gr4"><stop offset="0" stop-color="#ffffff"></stop><stop offset="1" stop-color="#b8b8b8"></stop></linearGradient><linearGradient x1="86" y1="99.4375" x2="86" y2="111.09319" gradientUnits="userSpaceOnUse" id="color-5_44024_gr5"><stop offset="0" stop-color="#ffffff"></stop><stop offset="1" stop-color="#b8b8b8"></stop></linearGradient></defs><g fill="none" fill-rule="nonzero" stroke="none" stroke-width="1" stroke-linecap="butt" stroke-linejoin="miter" stroke-miterlimit="10" stroke-dasharray="" stroke-dashoffset="0" font-family="none" font-weight="none" font-size="none" text-anchor="none" style="mix-blend-mode: normal"><path d="M0,172v-172h172v172z" fill="none"></path><g><path d="M86,155.875c-38.53069,0 -69.875,-31.34431 -69.875,-69.875c0,-38.53069 31.34431,-69.875 69.875,-69.875c38.53069,0 69.875,31.34431 69.875,69.875c0,38.53069 -31.34431,69.875 -69.875,69.875zM86,21.5c-35.56369,0 -64.5,28.93631 -64.5,64.5c0,35.56369 28.93631,64.5 64.5,64.5c35.56369,0 64.5,-28.93631 64.5,-64.5c0,-35.56369 -28.93631,-64.5 -64.5,-64.5z" fill="url(#color-1_44024_gr1)"></path><path d="M86,139.75c-29.63775,0 -53.75,-24.11225 -53.75,-53.75c0,-29.63775 24.11225,-53.75 53.75,-53.75c29.63775,0 53.75,24.11225 53.75,53.75c0,29.63775 -24.11225,53.75 -53.75,53.75zM86,37.625c-26.67344,0 -48.375,21.70156 -48.375,48.375c0,26.67344 21.70156,48.375 48.375,48.375c26.67344,0 48.375,-21.70156 48.375,-48.375c0,-26.67344 -21.70156,-48.375 -48.375,-48.375z" fill="url(#color-2_44024_gr2)"></path><path d="M112.875,67.1875c0,1.4835 -1.204,2.6875 -2.6875,2.6875h-48.375c-1.4835,0 -2.6875,-1.204 -2.6875,-2.6875v-5.375c0,-1.4835 1.204,-2.6875 2.6875,-2.6875h48.375c1.4835,0 2.6875,1.204 2.6875,2.6875z" fill="url(#color-3_44024_gr3)"></path><path d="M112.875,88.6875c0,1.4835 -1.204,2.6875 -2.6875,2.6875h-48.375c-1.4835,0 -2.6875,-1.204 -2.6875,-2.6875v-5.375c0,-1.4835 1.204,-2.6875 2.6875,-2.6875h48.375c1.4835,0 2.6875,1.204 2.6875,2.6875z" fill="url(#color-4_44024_gr4)"></path><path d="M112.875,110.1875c0,1.4835 -1.204,2.6875 -2.6875,2.6875h-48.375c-1.4835,0 -2.6875,-1.204 -2.6875,-2.6875v-5.375c0,-1.4835 1.204,-2.6875 2.6875,-2.6875h48.375c1.4835,0 2.6875,1.204 2.6875,2.6875z" fill="url(#color-5_44024_gr5)"></path></g></g></svg>