<svg xmlns="http://www.w3.org/2000/svg" x="0px" y="0px"
width="64" height="64"
viewBox="0 0 226 226"
style=" fill:#000000;"><defs><linearGradient x1="176.5625" y1="64.44531" x2="176.5625" y2="88.36953" gradientUnits="userSpaceOnUse" id="color-1_44770_gr1"><stop offset="0" stop-color="#ffe9e7"></stop><stop offset="1" stop-color="#dd6e96"></stop></linearGradient><linearGradient x1="144.78125" y1="37.07813" x2="144.78125" y2="189.53984" gradientUnits="userSpaceOnUse" id="color-2_44770_gr2"><stop offset="0" stop-color="#ff8177"></stop><stop offset="1" stop-color="#b12a5b"></stop></linearGradient><linearGradient x1="144.78125" y1="37.07813" x2="144.78125" y2="189.53984" gradientUnits="userSpaceOnUse" id="color-3_44770_gr3"><stop offset="0" stop-color="#ff8177"></stop><stop offset="1" stop-color="#b12a5b"></stop></linearGradient><linearGradient x1="38.84375" y1="37.07813" x2="38.84375" y2="189.53984" gradientUnits="userSpaceOnUse" id="color-4_44770_gr4"><stop offset="0" stop-color="#ff8177"></stop><stop offset="1" stop-color="#b12a5b"></stop></linearGradient><linearGradient x1="45.90625" y1="37.07813" x2="45.90625" y2="189.53984" gradientUnits="userSpaceOnUse" id="color-5_44770_gr5"><stop offset="0" stop-color="#ff8177"></stop><stop offset="1" stop-color="#b12a5b"></stop></linearGradient><linearGradient x1="33.54688" y1="37.07813" x2="33.54688" y2="189.53984" gradientUnits="userSpaceOnUse" id="color-6_44770_gr6"><stop offset="0" stop-color="#ff8177"></stop><stop offset="1" stop-color="#b12a5b"></stop></linearGradient><linearGradient x1="33.54688" y1="37.07813" x2="33.54688" y2="189.53984" gradientUnits="userSpaceOnUse" id="color-7_44770_gr7"><stop offset="0" stop-color="#ff8177"></stop><stop offset="1" stop-color="#b12a5b"></stop></linearGradient><linearGradient x1="58.26563" y1="37.07813" x2="58.26563" y2="189.53984" gradientUnits="userSpaceOnUse" id="color-8_44770_gr8"><stop offset="0" stop-color="#ff8177"></stop><stop offset="1" stop-color="#b12a5b"></stop></linearGradient><linearGradient x1="58.26563" y1="37.07813" x2="58.26563" y2="189.53984" gradientUnits="userSpaceOnUse" id="color-9_44770_gr9"><stop offset="0" stop-color="#ff8177"></stop><stop offset="1" stop-color="#b12a5b"></stop></linearGradient><linearGradient x1="45.90625" y1="37.07813" x2="45.90625" y2="189.53984" gradientUnits="userSpaceOnUse" id="color-10_44770_gr10"><stop offset="0" stop-color="#ff8177"></stop><stop offset="1" stop-color="#b12a5b"></stop></linearGradient></defs><g fill="none" fill-rule="nonzero" stroke="none" stroke-width="1" stroke-linecap="butt" stroke-linejoin="miter" stroke-miterlimit="10" stroke-dasharray="" stroke-dashoffset="0" font-family="none" font-weight="none" font-size="none" text-anchor="none" style="mix-blend-mode: normal"><path d="M0,226v-226h226v226z" fill="none"></path><g><path d="M165.96875,67.09375h17.76572c1.88922,0 3.42178,1.53256 3.42178,3.42178v17.76572z" fill="url(#color-1_44770_gr1)"></path><path d="M204.8125,38.84375h-120.0625c-5.85128,0 -10.59375,4.74247 -10.59375,10.59375v91.8125c0,5.85128 4.74247,10.59375 10.59375,10.59375h42.375v14.125h-3.53125c-5.84069,0 -10.59375,4.75659 -10.59375,10.59728v10.59022h63.5625v-10.59022c0,-5.84069 -4.75306,-10.59728 -10.59375,-10.59728h-3.53125v-14.125h42.375c5.85128,0 10.59375,-4.74247 10.59375,-10.59375v-91.8125c0,-5.85128 -4.74247,-10.59375 -10.59375,-10.59375zM165.96875,173.03125c1.94925,0 3.53125,1.58553 3.53125,3.53478v3.52772h-49.4375v-3.52772c0,-1.94925 1.582,-3.53478 3.53125,-3.53478h3.53125h35.3125zM155.375,165.96875h-21.1875v-14.125h21.1875zM208.34375,141.25c0,1.94925 -1.582,3.53125 -3.53125,3.53125h-42.375h-35.3125h-42.375c-1.94925,0 -3.53125,-1.582 -3.53125,-3.53125v-91.8125c0,-1.94925 1.582,-3.53125 3.53125,-3.53125h120.0625c1.94925,0 3.53125,1.582 3.53125,3.53125z" fill="url(#color-2_44770_gr2)"></path><path d="M194.21875,52.96875h-98.875c-3.8985,0 -7.0625,3.164 -7.0625,7.0625v70.625c0,3.8985 3.164,7.0625 7.0625,7.0625h98.875c3.8985,0 7.0625,-3.164 7.0625,-7.0625v-70.625c0,-3.8985 -3.164,-7.0625 -7.0625,-7.0625zM194.21875,130.65625h-98.875v-70.625h98.875z" fill="url(#color-3_44770_gr3)"></path><path d="M10.59375,49.44103v127.125c0,5.84069 4.75306,10.59022 10.59375,10.59022h45.90625v-7.0625h-35.3125v-14.125h35.3125v-7.0625h-35.3125c-3.89497,0 -7.0625,3.17106 -7.0625,7.06603v14.12147h-3.53125c-1.94925,0 -3.53125,-1.57847 -3.53125,-3.52772v-127.125c0,-1.94925 1.582,-3.53478 3.53125,-3.53478h45.90625v-7.0625h-45.90625c-5.84069,0 -10.59375,4.75659 -10.59375,10.59728z" fill="url(#color-4_44770_gr4)"></path><path d="M24.71875,67.09728v14.23447c0,3.83494 3.11809,6.9495 6.95303,6.9495h35.42197v-28.25h-35.3125c-3.89497,0 -7.0625,3.17106 -7.0625,7.06603zM60.03125,81.21875h-28.25v-14.125h28.25z" fill="url(#color-5_44770_gr5)"></path><path d="M24.71875,95.34375h17.65625v7.0625h-17.65625z" fill="url(#color-6_44770_gr6)"></path><path d="M24.71875,109.46875h17.65625v7.0625h-17.65625z" fill="url(#color-7_44770_gr7)"></path><path d="M49.4375,95.34375h17.65625v7.0625h-17.65625z" fill="url(#color-8_44770_gr8)"></path><path d="M49.4375,109.46875h17.65625v7.0625h-17.65625z" fill="url(#color-9_44770_gr9)"></path><path d="M24.71875,123.59375h42.375v7.0625h-42.375z" fill="url(#color-10_44770_gr10)"></path></g></g></svg>