<svg xmlns="http://www.w3.org/2000/svg" x="0px" y="0px"
width="64" height="64"
viewBox="0 0 172 172"
style=" fill:#000000;"><defs><linearGradient x1="71.21875" y1="44.51306" x2="71.21875" y2="65.46212" gradientUnits="userSpaceOnUse" id="color-1_mAlex3OyZVHj_gr1"><stop offset="0" stop-color="#ffe9e7"></stop><stop offset="1" stop-color="#dd6e96"></stop></linearGradient><linearGradient x1="32.25" y1="15.62244" x2="32.25" y2="49.9015" gradientUnits="userSpaceOnUse" id="color-2_mAlex3OyZVHj_gr2"><stop offset="0" stop-color="#ffe9e7"></stop><stop offset="1" stop-color="#dd6e96"></stop></linearGradient><linearGradient x1="55.09375" y1="34.9375" x2="55.09375" y2="150.56988" gradientUnits="userSpaceOnUse" id="color-3_mAlex3OyZVHj_gr3"><stop offset="0" stop-color="#ff8177"></stop><stop offset="1" stop-color="#b12a5b"></stop></linearGradient><linearGradient x1="110.1875" y1="34.9375" x2="110.1875" y2="150.56988" gradientUnits="userSpaceOnUse" id="color-4_mAlex3OyZVHj_gr4"><stop offset="0" stop-color="#ff8177"></stop><stop offset="1" stop-color="#b12a5b"></stop></linearGradient><linearGradient x1="118.25538" y1="34.9375" x2="118.25538" y2="150.56988" gradientUnits="userSpaceOnUse" id="color-5_mAlex3OyZVHj_gr5"><stop offset="0" stop-color="#ff8177"></stop><stop offset="1" stop-color="#b12a5b"></stop></linearGradient><linearGradient x1="71.21875" y1="34.9375" x2="71.21875" y2="150.56988" gradientUnits="userSpaceOnUse" id="color-6_mAlex3OyZVHj_gr6"><stop offset="0" stop-color="#ff8177"></stop><stop offset="1" stop-color="#b12a5b"></stop></linearGradient></defs><g fill="none" fill-rule="nonzero" stroke="none" stroke-width="1" stroke-linecap="butt" stroke-linejoin="miter" stroke-miterlimit="10" stroke-dasharray="" stroke-dashoffset="0" font-family="none" font-weight="none" font-size="none" text-anchor="none" style="mix-blend-mode: normal"><path d="M0,172v-172h172v172z" fill="none"></path><g><path d="M71.21875,45.6875c-5.19494,0 -9.40625,4.21131 -9.40625,9.40625c0,5.19494 4.21131,9.40625 9.40625,9.40625c5.19494,0 9.40625,-4.21131 9.40625,-9.40625c0,-5.19494 -4.21131,-9.40625 -9.40625,-9.40625z" fill="url(#color-1_mAlex3OyZVHj_gr1)"></path><path d="M45.35156,28.21875h-0.42194c-1.08844,0 -1.634,-1.3115 -0.86806,-2.07475l0.301,-0.30369c1.19056,-1.19056 1.19056,-3.10406 0,-4.27312l-1.42975,-1.42975c-1.16906,-1.19056 -3.08525,-1.19056 -4.27312,0l-0.301,0.30369c-0.76862,0.76325 -2.07744,0.22037 -2.07744,-0.87075v-0.42194c0,-1.67431 -1.35181,-3.02344 -3.02344,-3.02344h-2.01562c-1.67162,0 -3.02344,1.34913 -3.02344,3.02344v0.42194c0,1.08844 -1.30881,1.634 -2.07744,0.86806l-0.301,-0.30369c-1.19056,-1.19056 -3.10406,-1.19056 -4.27312,0l-1.43244,1.43244c-1.19056,1.16906 -1.19056,3.08256 0,4.27313l0.301,0.30369c0.76863,0.76325 0.22306,2.07475 -0.86538,2.07475h-0.42194c-1.67162,0 -3.02344,1.34913 -3.02344,3.02344v2.01563c0,1.67162 1.35181,3.02344 3.02344,3.02344h0.42463c1.08844,0 1.634,1.3115 0.86806,2.07475l-0.30369,0.30369c-1.19056,1.19056 -1.19056,3.10406 0,4.27313l1.43244,1.42975c1.16906,1.19056 3.08525,1.19056 4.27313,0l0.301,-0.30369c0.76594,-0.76594 2.07744,-0.22306 2.07744,0.86806v0.42194c0,1.67431 1.35181,3.02344 3.02344,3.02344h2.01563c1.67162,0 3.02344,-1.34913 3.02344,-3.02344v-0.42194c0,-1.08844 1.30881,-1.634 2.07744,-0.86806l0.301,0.30369c1.19056,1.19056 3.10406,1.19056 4.27313,0l1.43244,-1.42975c1.18787,-1.16906 1.18787,-3.08256 0,-4.27312l-0.30369,-0.30369c-0.76594,-0.76594 -0.22038,-2.07475 0.86806,-2.07475h0.42194c1.67163,0 3.02344,-1.34913 3.02344,-3.02344v-2.01562c-0.00269,-1.67431 -1.3545,-3.02344 -3.02613,-3.02344zM32.25,38.29688c-3.34594,0 -6.04687,-2.70094 -6.04687,-6.04687c0,-3.34594 2.70094,-6.04687 6.04688,-6.04687c3.34594,0 6.04688,2.70094 6.04688,6.04688c0,3.34594 -2.70094,6.04688 -6.04687,6.04688z" fill="url(#color-2_mAlex3OyZVHj_gr2)"></path><path d="M64.5,123.625v-10.75h-8.07056c-4.44512,0 -8.05444,-3.64156 -8.05444,-8.11894v-10.69356c0,-1.50769 1.15025,-2.6875 2.62569,-2.6875h5.48787c1.45125,0 2.63644,1.17981 2.63644,2.63106v2.74394h5.375v-2.74394c0,-4.41287 -3.59856,-8.00606 -8.01144,-8.00606h-2.73856v-5.375h-5.375v5.85875c-2.6875,1.10187 -5.375,4.06619 -5.375,7.57875v10.69356c0,4.39137 2.6875,8.25869 5.375,10.72581v16.20562h-2.69556c-4.44512,0 -8.05444,-3.61737 -8.05444,-8.0625v-48.375h-5.375v48.375c0,7.40944 6.02269,13.4375 13.42944,13.4375h2.69556v18.8125h5.375v-37.89912c0,0.18006 1.76031,0.27412 2.67944,0.27412h2.69556v5.375c0,10.37106 8.0625,18.8125 18.8125,18.8125v-5.375c-8.0625,0 -13.4375,-6.02806 -13.4375,-13.4375z" fill="url(#color-3_mAlex3OyZVHj_gr3)"></path><path d="M115.5625,96.75v-13.4375h2.6875v-5.375h-2.69556h-5.375h-8.05444v5.375h8.0625v13.4375z" fill="url(#color-4_mAlex3OyZVHj_gr4)"></path><path d="M140.33856,96.16144l-11.33856,-13.81106v-12.47537c0,-19.264 -16.125,-34.9375 -34.9375,-34.9375v5.375c16.125,0 29.5625,13.26281 29.5625,29.5625v14.39963l12.70112,15.45581c1.15025,1.19594 0.645,2.68481 0.45956,3.11213c-0.19619,0.46225 -0.98362,1.96994 -2.87563,1.96994h-10.28506v16.125h-10.75806c-1.48081,0 -2.67944,-1.204 -2.67944,-2.6875v-2.6875h-5.375v2.6875c0,4.44512 3.60931,8.0625 8.05444,8.0625h10.75806v2.6875c0,4.44512 -3.62275,8.0625 -8.07056,8.0625h-13.4375c-4.44512,0 -8.05444,3.61737 -8.05444,8.0625v10.75h5.375v-10.75c0,-1.4835 1.19862,-2.6875 2.67944,-2.6875h13.4375c7.40944,0 13.44556,-6.02806 13.44556,-13.4375v-2.6875v-2.6875v-13.4375h4.91006c3.44806,0 6.45,-2.00756 7.826,-5.23794c1.333,-3.14169 0.74713,-6.57094 -1.3975,-8.78813z" fill="url(#color-5_mAlex3OyZVHj_gr5)"></path><path d="M94.0625,56.64444v-3.10137c0,-2.73587 -1.90812,-5.03369 -4.46394,-5.63569c-0.09675,-0.24725 -0.19619,-0.48912 -0.301,-0.72831c1.38138,-2.23062 1.10456,-5.20569 -0.82775,-7.14069l-2.19031,-2.19031c-1.86781,-1.86781 -4.96112,-2.18762 -7.14338,-0.83312c-0.23919,-0.10481 -0.48375,-0.20425 -0.72831,-0.29831c-0.602,-2.5585 -2.9025,-4.46663 -5.63837,-4.46663h-3.10138c-2.73588,0 -5.03637,1.90813 -5.63569,4.46394c-0.24456,0.09406 -0.48912,0.19619 -0.72831,0.301c-2.18494,-1.35988 -5.27825,-1.04006 -7.14069,0.83044l-2.19569,2.193c-1.93231,1.935 -2.20644,4.90738 -0.82506,7.138c-0.10481,0.24188 -0.20694,0.48375 -0.301,0.72831c-2.5585,0.60469 -4.46663,2.9025 -4.46663,5.63837v3.10137c0,2.73588 1.90813,5.03369 4.46394,5.63569c0.09675,0.24725 0.19619,0.48912 0.301,0.72831c-1.38137,2.23063 -1.10456,5.20569 0.82775,7.14069l2.19031,2.19031c1.86781,1.86781 4.96113,2.18494 7.14338,0.83312c0.23919,0.10481 0.48375,0.20425 0.72831,0.29831c0.602,2.5585 2.9025,4.46662 5.63837,4.46662h3.10138c2.73588,0 5.03637,-1.90812 5.63569,-4.46394c0.24456,-0.09406 0.48913,-0.19619 0.72831,-0.29831c2.19031,1.35988 5.27825,1.04006 7.14069,-0.83312l2.19569,-2.193c1.93231,-1.935 2.20644,-4.90738 0.82506,-7.138c0.10481,-0.24188 0.20694,-0.48375 0.301,-0.72831c2.5585,-0.60469 4.46662,-2.9025 4.46662,-5.63837zM88.6875,56.64444c0,0.22844 -0.18544,0.41119 -0.41388,0.41119h-2.69019l-0.55362,1.9565c-0.30906,1.08844 -0.73369,2.12581 -1.2685,3.07988l-0.99438,1.77375l1.90006,1.90006c0.16125,0.16125 0.16125,0.42463 0,0.58588l-2.193,2.19031c-0.19888,0.19888 -0.37625,0.20425 -0.58856,-0.00538l-1.89737,-1.88663l-1.76837,0.98631c-0.95944,0.53481 -1.99681,0.96213 -3.07988,1.27119l-1.9565,0.55362v2.6875c0,0.22844 -0.18544,0.41388 -0.41388,0.41388h-3.10138c-0.22844,0 -0.41387,-0.18544 -0.41387,-0.41388v-2.6875l-1.9565,-0.55362c-1.08306,-0.30638 -2.12044,-0.73369 -3.07988,-1.27119l-1.76837,-0.98631l-1.90275,1.892c-0.19888,0.19888 -0.38162,0.19888 -0.58319,0l-2.19031,-2.18762c-0.16394,-0.16394 -0.16394,-0.42731 -0.00269,-0.58856l1.90006,-1.90006l-0.99437,-1.77375c-0.53213,-0.95137 -0.95944,-1.98875 -1.2685,-3.07988l-0.55363,-1.9565h-2.69019c-0.22844,0 -0.41387,-0.18275 -0.41387,-0.41119v-3.10137c0,-0.22844 0.18544,-0.41119 0.41387,-0.41119h2.69019l0.55363,-1.9565c0.30906,-1.08844 0.73369,-2.12581 1.2685,-3.07988l0.99437,-1.77375l-1.90006,-1.90006c-0.16125,-0.16125 -0.16125,-0.42463 0,-0.58588l2.193,-2.19031c0.19888,-0.19888 0.37625,-0.20425 0.58856,0.00538l1.89737,1.88662l1.76837,-0.98631c0.96213,-0.53481 1.9995,-0.96213 3.07988,-1.27119l1.9565,-0.55363v-2.6875c0,-0.22844 0.18544,-0.41387 0.41388,-0.41387h3.10138c0.22844,0 0.41387,0.18544 0.41387,0.41387v2.6875l1.9565,0.55363c1.08038,0.30638 2.11775,0.73369 3.07988,1.27119l1.76838,0.98631l1.90275,-1.892c0.19888,-0.19887 0.38162,-0.19887 0.58319,0l2.19031,2.18763c0.16394,0.16394 0.16394,0.42731 0.00269,0.58856l-1.90006,1.90006l0.99438,1.77375c0.53212,0.95137 0.95944,1.98875 1.2685,3.07988l0.55362,1.9565h2.69019c0.22844,0 0.41388,0.18275 0.41388,0.41119z" fill="url(#color-6_mAlex3OyZVHj_gr6)"></path></g></g></svg>